<svg xmlns="http://www.w3.org/2000/svg" xmlns:xlink="http://www.w3.org/1999/xlink" viewBox="0 0 119.67 38.92"><defs><style>.cls-1,.cls-2{fill:none;stroke-miterlimit:10;stroke-width:1.27px;}.cls-1{stroke:url(#linear-gradient);}.cls-2{stroke:url(#linear-gradient-2);}.cls-3,.cls-4{fill:#fff;}.cls-4{font-size:27.5px;font-family:GoogleSans-Medium, Google Sans Medium;}.cls-5{letter-spacing:0em;}.cls-6{letter-spacing:0em;}</style><linearGradient id="linear-gradient" x1="6.03" y1="2.45" x2="28.1" y2="28.41" gradientUnits="userSpaceOnUse"><stop offset="0" stop-color="#01f6ba"/><stop offset="0.64" stop-color="#02f5d2"/><stop offset="1" stop-color="#03f5e2"/></linearGradient><linearGradient id="linear-gradient-2" x1="5.1" y1="0.91" x2="29.16" y2="29.21" xlink:href="#linear-gradient"/></defs><title>Asset 2</title><g id="Layer_2" data-name="Layer 2"><g id="Layer_1-2" data-name="Layer 1"><path class="cls-1" d="M29.28,6.38c-1.66-.32-3.33-.58-5-1a34.42,34.42,0,0,1-7.5-3,1,1,0,0,0-.51-.13,1,1,0,0,0-.45.13,33.51,33.51,0,0,1-7.46,3c-1.87.45-3.79.75-5.68,1.11-.89.17-.73.06-.7.85.08,2.28.18,4.55.29,6.83a14.66,14.66,0,0,0,.21,2.33c.37,1.73.75,3.45,1.25,5.14A26,26,0,0,0,9,31a30.21,30.21,0,0,0,3.5,3.31,18,18,0,0,0,3.34,2.23.93.93,0,0,0,.48.12,1,1,0,0,0,.39-.1,19,19,0,0,0,3.73-2.47,26,26,0,0,0,6.91-8.62,29.1,29.1,0,0,0,3.06-12.14c0-1.19.12-2.37.17-3.56,0-1,.07-2,.11-3.12Z"/><path class="cls-2" d="M30.49,5.16c-1.81-.35-3.64-.64-5.44-1.07A37.64,37.64,0,0,1,16.86.78,1.11,1.11,0,0,0,16.3.64a1.15,1.15,0,0,0-.49.14A36.65,36.65,0,0,1,7.65,4.09c-2,.5-4.14.82-6.21,1.21-1,.18-.8.06-.77.93.08,2.49.2,5,.32,7.47a16,16,0,0,0,.23,2.55c.4,1.89.82,3.78,1.37,5.63A28.48,28.48,0,0,0,8.3,32.09a33,33,0,0,0,3.82,3.62,19.71,19.71,0,0,0,3.65,2.43,1,1,0,0,0,.52.14,1.08,1.08,0,0,0,.43-.11,20.77,20.77,0,0,0,4.08-2.7A28.45,28.45,0,0,0,28.37,26a31.82,31.82,0,0,0,3.34-13.28c.05-1.3.13-2.6.19-3.9,0-1.12.08-2.24.12-3.41Z"/><path class="cls-3" d="M14.9,25.57a1.16,1.16,0,0,1-.93-.46l-3-3.94a1.16,1.16,0,0,1,1.86-1.41l2,2.59,4.94-7.93a1.16,1.16,0,1,1,2,1.23L15.89,25a1.16,1.16,0,0,1-.94.55Z"/><text class="cls-4" transform="translate(58.67 27.78)">El<tspan class="cls-5" x="22.36" y="0">ig</tspan><tspan class="cls-6" x="45.96" y="0">a</tspan></text></g></g></svg>