<svg xmlns="http://www.w3.org/2000/svg" viewBox="0 0 72.84 75.5"><defs><style>.cls-1{fill:#412bff;}</style></defs><title>Asset 5</title><g id="Layer_2" data-name="Layer 2"><g id="Layer_1-2" data-name="Layer 1"><path class="cls-1" d="M51.67,19.08,29,7a1,1,0,0,0-1,0L6,19.08a1,1,0,0,0-.53.9V33.91A32.48,32.48,0,0,0,19.68,60.75L20.85,59A30.42,30.42,0,0,1,7.56,33.91V20.59l21-11.51L50.16,20.6v13c0,.76,0,1.53-.09,2.29l2.06.15c.06-.81.09-1.63.09-2.44V20A1,1,0,0,0,51.67,19.08Z"/><path class="cls-1" d="M57.16,15.15,29,.12a1,1,0,0,0-1,0L.54,15.15a1,1,0,0,0-.54.9V33.4A40.24,40.24,0,0,0,19.73,68l1.05-1.77A38.17,38.17,0,0,1,2.06,33.4V16.67L28.48,2.2,55.66,16.68V33c0,1-.05,1.92-.12,2.87L57.6,36c.07-1,.12-2,.12-3V16.06A1,1,0,0,0,57.16,15.15Z"/><path class="cls-1" d="M56.26,62a3.53,3.53,0,1,0,3.53,3.53h0A3.54,3.54,0,0,0,56.26,62Zm0,5a1.47,1.47,0,1,1,1.47-1.47h0A1.47,1.47,0,0,1,56.26,67Z"/><path class="cls-1" d="M64.8,62a3.53,3.53,0,1,0,3.53,3.53h0A3.54,3.54,0,0,0,64.8,62Zm0,5a1.47,1.47,0,1,1,1.47-1.47h0A1.47,1.47,0,0,1,64.8,67Z"/><path class="cls-1" d="M24.74,62.31a1,1,0,0,0-1,1v4.42a1,1,0,0,0,2.06,0V63.34A1,1,0,0,0,24.74,62.31Z"/><path class="cls-1" d="M28.69,62.31a1,1,0,0,0-1,1v4.42a1,1,0,0,0,2.06,0V63.34A1,1,0,0,0,28.69,62.31Z"/><path class="cls-1" d="M32.47,62.31a1,1,0,0,0-1,1v4.42a1,1,0,0,0,2.06,0V63.34A1,1,0,0,0,32.47,62.31Z"/><path class="cls-1" d="M36.42,62.31a1,1,0,0,0-1,1v4.42a1,1,0,0,0,2.06,0V63.34A1,1,0,0,0,36.42,62.31Z"/><path class="cls-1" d="M40.37,62.31a1,1,0,0,0-1,1v4.42a1,1,0,0,0,2.06,0V63.34A1,1,0,0,0,40.37,62.31Z"/><path class="cls-1" d="M70.32,35.13H21.73a2.45,2.45,0,0,0-2.49,2.4V52.3a2.57,2.57,0,0,0,2.49,2.59h4.89v.86H21.73a2.45,2.45,0,0,0-2.49,2.4V72.91a2.57,2.57,0,0,0,2.49,2.59H70.32a2.59,2.59,0,0,0,2.51-2.59V58.19a2.46,2.46,0,0,0-2.48-2.44h-4.9v-.86h4.87a2.59,2.59,0,0,0,2.51-2.59V37.57a2.46,2.46,0,0,0-2.48-2.44Zm-6.94,21H28.69V54.2h34.7Zm7.39,2.1V72.91a.53.53,0,0,1-.45.53H21.73c-.24,0-.43-.28-.43-.53V58.19a.39.39,0,0,1,.39-.38h5.09a1.29,1.29,0,0,0,.85.34H64.43a1.29,1.29,0,0,0,.85-.34h5a.4.4,0,0,1,.45.35Zm0-5.89a.53.53,0,0,1-.45.53h-5a.9.9,0,0,0-.93-.69H27.62a.9.9,0,0,0-.93.69h-5c-.24,0-.43-.28-.43-.53V37.57a.39.39,0,0,1,.39-.38H70.32a.4.4,0,0,1,.45.35V52.3Z"/><path class="cls-1" d="M56.26,41.4a3.53,3.53,0,1,0,3.53,3.53h0A3.54,3.54,0,0,0,56.26,41.4Zm0,5a1.47,1.47,0,1,1,1.47-1.47h0A1.47,1.47,0,0,1,56.26,46.41Z"/><path class="cls-1" d="M64.8,41.4a3.53,3.53,0,1,0,3.53,3.53h0A3.54,3.54,0,0,0,64.8,41.4Zm0,5a1.47,1.47,0,1,1,1.47-1.47h0A1.47,1.47,0,0,1,64.8,46.41Z"/><path class="cls-1" d="M24.74,41.7a1,1,0,0,0-1,1v4.42a1,1,0,0,0,2.06,0V42.73A1,1,0,0,0,24.74,41.7Z"/><path class="cls-1" d="M28.69,41.7a1,1,0,0,0-1,1v4.42a1,1,0,0,0,2.06,0V42.73A1,1,0,0,0,28.69,41.7Z"/><path class="cls-1" d="M32.47,41.7a1,1,0,0,0-1,1v4.42a1,1,0,0,0,2.06,0V42.73A1,1,0,0,0,32.47,41.7Z"/><path class="cls-1" d="M36.42,41.7a1,1,0,0,0-1,1v4.42a1,1,0,0,0,2.06,0V42.73A1,1,0,0,0,36.42,41.7Z"/><path class="cls-1" d="M40.37,41.7a1,1,0,0,0-1,1v4.42a1,1,0,0,0,2.06,0V42.73A1,1,0,0,0,40.37,41.7Z"/></g></g></svg>