<svg xmlns="http://www.w3.org/2000/svg" xmlns:xlink="http://www.w3.org/1999/xlink" viewBox="0 0 303.23 252.14"><defs><style>.cls-1,.cls-11,.cls-18,.cls-2,.cls-6,.cls-7{fill:none;}.cls-11,.cls-2,.cls-6,.cls-7{stroke:#412bff;}.cls-11,.cls-16,.cls-17,.cls-18,.cls-2,.cls-6,.cls-7{stroke-miterlimit:10;}.cls-2{stroke-width:2.67px;}.cls-3{fill:#64ffda;}.cls-4{fill:#01f6ba;}.cls-5{fill:#412bff;}.cls-7{stroke-width:2px;}.cls-8{fill:#ff5252;}.cls-9{fill:#ff0;}.cls-10{fill:#69f0ae;}.cls-11{stroke-width:3px;}.cls-12{fill:#e0e0e0;}.cls-13{fill:url(#linear-gradient);}.cls-14,.cls-16{fill:#6c63ff;}.cls-15{opacity:0.05;}.cls-15,.cls-17{isolation:isolate;}.cls-16,.cls-17{stroke:#704fff;stroke-width:0.89px;}.cls-17{opacity:0.08;}.cls-18{stroke:#01f6ba;stroke-width:0.7px;stroke-dasharray:4.2;}</style><linearGradient id="linear-gradient" x1="269.59" y1="-2955.46" x2="269.59" y2="-2867.95" gradientTransform="matrix(1, 0, 0, -1, -167, -2733.81)" gradientUnits="userSpaceOnUse"><stop offset="0" stop-color="gray" stop-opacity="0.25"/><stop offset="0.54" stop-color="gray" stop-opacity="0.12"/><stop offset="1" stop-color="gray" stop-opacity="0.1"/></linearGradient></defs><title>Asset 8</title><g id="Layer_2" data-name="Layer 2"><g id="Layer_1-2" data-name="Layer 1"><rect class="cls-1" x="159.43" width="143.8" height="160.5"/><rect class="cls-2" x="161.8" y="107.16" width="139.05" height="49.84"/><rect class="cls-3" x="173.22" y="118.98" width="5.39" height="25.54"/><rect class="cls-3" x="183.85" y="118.98" width="5.39" height="25.54"/><rect class="cls-3" x="194.49" y="118.98" width="5.39" height="25.54"/><rect class="cls-4" x="205.13" y="118.98" width="5.39" height="25.54"/><rect class="cls-4" x="215.77" y="118.98" width="5.39" height="25.54"/><rect class="cls-4" x="226.4" y="118.98" width="5.39" height="25.54"/><rect class="cls-4" x="237.04" y="118.98" width="5.39" height="25.54"/><rect class="cls-2" x="161.8" y="55.37" width="139.05" height="49.84"/><rect class="cls-4" x="173.22" y="67.2" width="5.39" height="25.54"/><rect class="cls-4" x="183.85" y="67.2" width="5.39" height="25.54"/><rect class="cls-4" x="194.49" y="67.2" width="5.39" height="25.54"/><rect class="cls-4" x="205.13" y="67.2" width="5.39" height="25.54"/><rect class="cls-4" x="215.77" y="67.2" width="5.39" height="25.54"/><rect class="cls-4" x="226.4" y="67.2" width="5.39" height="25.54"/><rect class="cls-4" x="237.04" y="67.2" width="5.39" height="25.54"/><rect class="cls-2" x="161.8" y="3.59" width="139.05" height="49.84"/><rect class="cls-4" x="173.22" y="15.41" width="5.39" height="25.54"/><rect class="cls-4" x="183.85" y="15.41" width="5.39" height="25.54"/><rect class="cls-4" x="194.49" y="15.41" width="5.39" height="25.54"/><rect class="cls-4" x="205.13" y="15.41" width="5.39" height="25.54"/><rect class="cls-4" x="215.77" y="15.41" width="5.39" height="25.54"/><rect class="cls-4" x="226.4" y="15.41" width="5.39" height="25.54"/><rect class="cls-4" x="237.04" y="15.41" width="5.39" height="25.54"/><circle class="cls-5" cx="281.25" cy="28.11" r="7.76"/><circle class="cls-5" cx="281.25" cy="80.53" r="7.76"/><circle class="cls-5" cx="281.25" cy="133.85" r="7.76"/><path class="cls-6" d="M20,109.16h176.1a5.53,5.53,0,0,1,5.53,5.53V235.3H14.45V114.69A5.53,5.53,0,0,1,20,109.16Z"/><rect class="cls-7" x="21.15" y="116.69" width="174.36" height="116.52"/><circle class="cls-8" cx="31.89" cy="127.24" r="1.33"/><circle class="cls-9" cx="35.55" cy="127.24" r="1.33"/><circle class="cls-10" cx="39.21" cy="127.24" r="1.33"/><path class="cls-11" d="M214.56,233H122.86a2.8,2.8,0,0,1-2.14,4.66h-35A2.8,2.8,0,0,1,83.6,233H1.5s-.14,13.69,8.18,17.21c6.35.42,188.08.7,198.66,0C216.39,245.56,214.56,233,214.56,233Z"/><circle class="cls-12" cx="20.55" cy="235.96" r="1.13"/><circle class="cls-12" cx="23.93" cy="235.96" r="1.13"/><circle class="cls-12" cx="27.32" cy="235.96" r="1.13"/><path class="cls-13" d="M102.59,134.14l-34,20.9s0,43.11,34,66.61c34-23.51,34-66.61,34-66.61Z"/><path class="cls-14" d="M102.59,136.6l-32,19.72s0,40.68,32,62.86c32-22.19,32-62.86,32-62.86Z"/><path class="cls-15" d="M103.13,136.6l-.55.35v81.87l.55.38c32-22.19,32-62.86,32-62.86Z"/><path class="cls-16" d="M102.59,141.37,74.25,158.81s0,36,28.34,55.61c28.34-19.63,28.34-55.61,28.34-55.61Z"/><path class="cls-17" d="M102.59,141.5v73c28.34-19.63,28.34-55.61,28.34-55.61Z"/><polyline class="cls-18" points="83.85 107.2 83.85 34.77 143.68 34.77"/><polyline class="cls-18" points="65.31 85.16 65.31 12.73 125.14 12.73"/><polyline class="cls-18" points="250.75 167.03 250.75 223.71 219.26 223.71"/><polyline class="cls-18" points="269.64 179.62 269.64 236.31 238.15 236.31"/></g></g></svg>