<svg xmlns="http://www.w3.org/2000/svg" viewBox="0 0 784.08 629.22"><defs><style>.cls-1{opacity:0.28;}.cls-2,.cls-3{fill:#333;}.cls-3{stroke:gray;stroke-miterlimit:10;stroke-width:0.15px;}</style></defs><title>Asset 9</title><g id="Layer_2" data-name="Layer 2"><g id="Layer_1-2" data-name="Layer 1"><g class="cls-1"><polygon class="cls-2" points="307.13 622.37 245.88 497.14 245.45 497.35 306.7 622.57 307.13 622.37"/><polygon class="cls-2" points="524.95 495 524.94 494.52 245.66 497.01 245.66 497.49 524.95 495"/><polygon class="cls-2" points="525.05 494.95 524.82 494.55 306.79 622.27 307.03 622.68 525.05 494.95"/><polygon class="cls-2" points="525.09 494.58 387.07 384.98 386.76 385.35 524.79 494.94 525.09 494.58"/><polygon class="cls-2" points="727.91 431.14 727.77 430.69 524.87 494.53 525.01 494.98 727.91 431.14"/><polygon class="cls-2" points="644.34 333.61 643.96 333.33 524.76 494.62 525.12 494.89 644.34 333.61"/><path class="cls-3" d="M727.84,430.92"/><rect class="cls-2" x="685.76" y="317.96" width="0.48" height="128.46" transform="translate(-83.42 539.25) rotate(-40.66)"/><polygon class="cls-2" points="728.07 430.91 718.32 184.39 717.86 184.41 727.61 430.93 728.07 430.91"/><polygon class="cls-2" points="718.3 184.51 717.88 184.31 643.94 333.36 644.36 333.57 718.3 184.51"/><polygon class="cls-2" points="644.32 333.3 522.58 218.29 522.25 218.64 643.99 333.65 644.32 333.3"/><polygon class="cls-2" points="644.23 333.25 429.68 265.38 429.53 265.81 644.09 333.7 644.23 333.25"/><polygon class="cls-2" points="644.2 333.7 644.11 333.24 386.87 384.93 386.97 385.39 644.2 333.7"/><polygon class="cls-2" points="525.15 494.66 429.81 265.5 429.38 265.69 524.72 494.85 525.15 494.66"/><polygon class="cls-2" points="525.17 494.75 522.64 218.47 522.17 218.47 524.71 494.77 525.17 494.75"/><polygon class="cls-2" points="522.51 218.68 522.31 218.26 427.29 265.35 427.52 265.77 522.51 218.68"/><polygon class="cls-2" points="245.75 497.02 66.73 427.34 66.55 427.78 245.57 497.46 245.75 497.02"/><polygon class="cls-2" points="284.05 263.41 283.59 263.33 245.43 497.2 245.9 497.28 284.05 263.41"/><polygon class="cls-2" points="387.07 385.35 386.77 384.97 245.51 497.06 245.81 497.43 387.07 385.35"/><polygon class="cls-2" points="387.09 385 284 263.22 283.64 263.52 386.73 385.31 387.09 385"/><polygon class="cls-2" points="429.82 265.68 429.39 265.52 386.69 385.07 387.14 385.23 429.82 265.68"/><polygon class="cls-2" points="387.14 385.13 364.9 165.44 364.43 165.49 386.68 385.17 387.14 385.13"/><polygon class="cls-2" points="429.8 265.46 364.87 165.34 364.46 165.6 429.41 265.72 429.8 265.46"/><polygon class="cls-2" points="429.61 265.83 429.62 265.36 283.81 263.12 283.82 263.6 429.61 265.83"/><path class="cls-3" d="M429.62,265.61"/><polygon class="cls-2" points="283.82 263.6 283.81 263.13 163.06 268.04 163.07 268.51 283.82 263.6"/><polygon class="cls-2" points="283.96 263.55 283.67 263.18 66.5 427.37 66.8 427.75 283.96 263.55"/><polygon class="cls-2" points="163.25 268.4 162.85 268.15 66.44 427.43 66.85 427.69 163.25 268.4"/><polygon class="cls-2" points="292.01 178.07 291.74 177.68 162.92 268.08 163.19 268.46 292.01 178.07"/><polygon class="cls-2" points="163.17 268.07 28.97 187.18 28.72 187.58 162.94 268.49 163.17 268.07"/><polygon class="cls-2" points="292.12 177.9 291.64 177.85 283.59 263.34 284.05 263.39 292.12 177.9"/><polygon class="cls-2" points="364.7 165.7 364.62 165.24 291.85 177.64 291.93 178.11 364.7 165.7"/><polygon class="cls-2" points="391.95 71.34 391.5 71.21 364.43 165.4 364.89 165.53 391.95 71.34"/><polygon class="cls-2" points="364.73 165.25 225.69 122.89 225.55 123.33 364.59 165.69 364.73 165.25"/><polygon class="cls-2" points="291.92 177.65 91.71 147.52 91.65 147.99 291.85 178.12 291.92 177.65"/><polygon class="cls-2" points="292.03 177.7 225.77 122.94 225.47 123.29 291.73 178.05 292.03 177.7"/><polygon class="cls-2" points="292 177.67 6.87 28.4 6.64 28.82 291.78 178.09 292 177.67"/><polygon class="cls-2" points="91.8 147.96 91.56 147.56 28.72 187.18 28.96 187.58 91.8 147.96"/><polygon class="cls-2" points="91.86 147.62 6.95 28.47 6.58 28.74 91.48 147.89 91.86 147.62"/><polygon class="cls-2" points="199.51 109.41 199.35 108.95 91.6 147.55 91.75 147.97 199.51 109.41"/><polygon class="cls-2" points="225.74 122.9 199.55 108.98 199.33 109.39 225.52 123.31 225.74 122.9"/><polygon class="cls-2" points="199.67 109.15 189.76 38.14 189.29 38.2 199.21 109.22 199.67 109.15"/><polygon class="cls-2" points="199.52 108.96 6.85 28.39 6.66 28.82 199.34 109.38 199.52 108.96"/><polygon class="cls-2" points="340.57 27.2 340.53 26.72 189.5 37.94 189.54 38.4 340.57 27.2"/><polygon class="cls-2" points="189.54 37.93 6.77 28.37 6.74 28.84 189.52 38.41 189.54 37.93"/><polygon class="cls-2" points="391.76 71.04 189.56 37.93 189.48 38.4 391.69 71.49 391.76 71.04"/><polygon class="cls-2" points="391.88 71.09 340.7 26.77 340.39 27.13 391.57 71.46 391.88 71.09"/><polygon class="cls-2" points="488.92 7 488.85 6.53 340.51 26.72 340.58 27.18 488.92 7"/><rect class="cls-2" x="515.06" y="-138.61" width="0.47" height="350" transform="translate(451.16 548.98) rotate(-86.91)"/><polygon class="cls-2" points="777.3 11.41 777.31 10.94 488.89 6.53 488.88 7 777.3 11.41"/><polygon class="cls-2" points="575.42 91.83 489.05 6.6 488.73 6.94 575.09 92.15 575.42 91.83"/><polygon class="cls-2" points="747.63 107.94 488.97 6.55 488.81 6.99 747.47 108.38 747.63 107.94"/><polygon class="cls-2" points="777.4 11.39 777.23 10.96 689.96 45.61 690.12 46.05 777.4 11.39"/><polygon class="cls-2" points="747.72 108.01 690.22 45.68 689.87 45.99 747.38 108.32 747.72 108.01"/><polygon class="cls-2" points="690.12 46.05 689.96 45.61 575.17 91.78 575.35 92.22 690.12 46.05"/><polygon class="cls-2" points="661.17 109.27 575.31 91.77 575.2 92.22 661.06 109.72 661.17 109.27"/><polygon class="cls-2" points="575.35 92.22 575.17 91.77 486.95 126.9 487.12 127.33 575.35 92.22"/><polygon class="cls-2" points="644.39 333.4 575.49 91.93 575.03 92.06 643.93 333.54 644.39 333.4"/><polygon class="cls-2" points="747.72 110.9 747.28 110.72 717.88 184.32 718.32 184.49 747.72 110.9"/><polygon class="cls-2" points="718.28 184.27 661.3 109.35 660.92 109.63 717.9 184.55 718.28 184.27"/><polygon class="cls-2" points="718.14 184.18 487.08 126.88 486.99 127.34 718.04 184.63 718.14 184.18"/><polygon class="cls-2" points="690.27 45.93 689.84 45.74 660.9 109.39 661.33 109.59 690.27 45.93"/><polygon class="cls-2" points="780.3 11.41 779.98 11.04 660.97 109.31 661.27 109.68 780.3 11.41"/><polygon class="cls-2" points="661.36 109.51 660.87 109.47 643.92 333.46 644.39 333.48 661.36 109.51"/><polygon class="cls-2" points="487.28 127.11 489.11 6.77 488.63 6.75 486.81 127.11 487.28 127.11"/><polygon class="cls-2" points="493.92 127.02 391.84 71.07 391.6 71.48 493.69 127.43 493.92 127.02"/><polygon class="cls-2" points="522.63 218.38 487.25 127.03 486.81 127.19 522.19 218.56 522.63 218.38"/><path class="cls-2" d="M91.58,154.53a6.77,6.77,0,1,0-6.67-6.87A6.76,6.76,0,0,0,91.58,154.53Z"/><path class="cls-2" d="M163,275a6.77,6.77,0,1,0-6.66-6.88A6.76,6.76,0,0,0,163,275Z"/><path class="cls-2" d="M199.34,115.95a6.77,6.77,0,1,0-6.66-6.87A6.75,6.75,0,0,0,199.34,115.95Z"/><path class="cls-2" d="M225.52,129.87a6.76,6.76,0,1,0-6.67-6.86A6.76,6.76,0,0,0,225.52,129.87Z"/><path class="cls-2" d="M364.55,172.23a6.77,6.77,0,1,0-6.65-6.87A6.78,6.78,0,0,0,364.55,172.23Z"/><path class="cls-2" d="M283.7,270.12a6.76,6.76,0,1,0-6.64-6.85A6.77,6.77,0,0,0,283.7,270.12Z"/><path class="cls-2" d="M429.51,272.36a6.77,6.77,0,1,0-6.66-6.86A6.74,6.74,0,0,0,429.51,272.36Z"/><path class="cls-2" d="M291.79,184.64a6.77,6.77,0,1,0-6.67-6.86A6.76,6.76,0,0,0,291.79,184.64Z"/><path class="cls-2" d="M575.15,98.75a6.76,6.76,0,1,0-6.65-6.86A6.78,6.78,0,0,0,575.15,98.75Z"/><path class="cls-2" d="M718,191.17a6.76,6.76,0,1,0-6.67-6.87A6.79,6.79,0,0,0,718,191.17Z"/><path class="cls-2" d="M644.05,340.24a6.76,6.76,0,1,0-6.65-6.87A6.78,6.78,0,0,0,644.05,340.24Z"/><path class="cls-2" d="M522.31,225.24a6.77,6.77,0,1,0-6.66-6.88A6.79,6.79,0,0,0,522.31,225.24Z"/><path class="cls-2" d="M747.44,114.92a6.76,6.76,0,1,0-6.65-6.86A6.78,6.78,0,0,0,747.44,114.92Z"/><path class="cls-2" d="M391.61,78A6.77,6.77,0,1,0,385,71.16,6.75,6.75,0,0,0,391.61,78Z"/><path class="cls-2" d="M524.83,501.51a6.76,6.76,0,1,0-6.65-6.86A6.75,6.75,0,0,0,524.83,501.51Z"/><path class="cls-2" d="M727.75,437.69a6.77,6.77,0,1,0-6.67-6.87A6.77,6.77,0,0,0,727.75,437.69Z"/><path class="cls-2" d="M245.55,504a6.76,6.76,0,1,0-6.66-6.86A6.75,6.75,0,0,0,245.55,504Z"/><path class="cls-2" d="M306.8,629.22a6.76,6.76,0,1,0-6.64-6.85A6.74,6.74,0,0,0,306.8,629.22Z"/><path class="cls-2" d="M66.55,434.32a6.76,6.76,0,1,0-6.67-6.87A6.78,6.78,0,0,0,66.55,434.32Z"/><path class="cls-2" d="M386.82,391.92a6.77,6.77,0,1,0-6.67-6.86A6.77,6.77,0,0,0,386.82,391.92Z"/><path class="cls-2" d="M28.75,194.14a6.76,6.76,0,1,0-6.67-6.86A6.77,6.77,0,0,0,28.75,194.14Z"/><path class="cls-2" d="M6.66,35.36A6.76,6.76,0,1,0,0,28.51,6.75,6.75,0,0,0,6.66,35.36Z"/><path class="cls-2" d="M189.42,44.92a6.75,6.75,0,1,0-6.66-6.85A6.75,6.75,0,0,0,189.42,44.92Z"/><path class="cls-2" d="M340.45,33.72a6.76,6.76,0,1,0-6.67-6.86A6.75,6.75,0,0,0,340.45,33.72Z"/><path class="cls-2" d="M488.77,13.52a6.76,6.76,0,1,0-6.65-6.86A6.78,6.78,0,0,0,488.77,13.52Z"/><path class="cls-2" d="M486.92,133.86a6.76,6.76,0,1,0-6.64-6.85A6.75,6.75,0,0,0,486.92,133.86Z"/><path class="cls-2" d="M661,116.25a6.76,6.76,0,1,0-6.66-6.86A6.76,6.76,0,0,0,661,116.25Z"/><path class="cls-2" d="M689.93,52.59a6.76,6.76,0,1,0-6.64-6.85A6.77,6.77,0,0,0,689.93,52.59Z"/><path class="cls-2" d="M777.21,17.95a6.77,6.77,0,1,0-6.67-6.87A6.79,6.79,0,0,0,777.21,17.95Z"/></g></g></g></svg>