<svg xmlns="http://www.w3.org/2000/svg" viewBox="0 0 69.64 69.64"><defs><style>.cls-1{fill:none;stroke:#412bff;stroke-miterlimit:10;stroke-width:2.46px;}</style></defs><title>Asset 17</title><g id="Layer_2" data-name="Layer 2"><g id="Layer_1-2" data-name="Layer 1"><path class="cls-1" d="M34.82,1.23A33.59,33.59,0,1,0,68.41,34.82,33.59,33.59,0,0,0,34.82,1.23Zm0,34a6.56,6.56,0,0,1-6.55-6.55,6.55,6.55,0,0,1,2.55-5.19,6.55,6.55,0,1,1,4,11.74Z"/><path class="cls-1" d="M46.7,47.93a11.89,11.89,0,0,0-7.88-11.19,11.94,11.94,0,0,0-8,0,11.89,11.89,0,0,0-7.88,11.19"/><path class="cls-1" d="M49.38,28.68a6.56,6.56,0,0,1-6.56,6.55,6.47,6.47,0,0,1-4-1.37,6.53,6.53,0,0,0,0-10.37,6.47,6.47,0,0,1,4-1.37A6.56,6.56,0,0,1,49.38,28.68Z"/><path class="cls-1" d="M54.7,47.93A11.88,11.88,0,0,0,42.82,36a11.75,11.75,0,0,0-4,.69"/><path class="cls-1" d="M30.82,33.86a6.55,6.55,0,1,1,0-10.37,6.55,6.55,0,0,0,0,10.37Z"/><path class="cls-1" d="M30.82,36.74a11.75,11.75,0,0,0-4-.69A11.88,11.88,0,0,0,14.94,47.93"/></g></g></svg>