<svg xmlns="http://www.w3.org/2000/svg" viewBox="0 0 67 67.01"><defs><style>.cls-1{fill:#412bff;}</style></defs><title>Asset 6</title><g id="Layer_2" data-name="Layer 2"><g id="Layer_1-2" data-name="Layer 1"><path class="cls-1" d="M29,58.06a29.07,29.07,0,0,0,8.1-1.15,1.12,1.12,0,0,0-.62-2.15,26.58,26.58,0,0,1-3.8.8,34.66,34.66,0,0,0,3.83-3.71,1.12,1.12,0,0,0-1.63-1.54l-.05.06a32.61,32.61,0,0,1-4.71,4.38V41.36a32.39,32.39,0,0,1,6.41.83A1.12,1.12,0,1,0,37.07,40a34.61,34.61,0,0,0-6.92-.89v-9H42.82c0,.69-.06,1.39-.13,2.09a1.12,1.12,0,0,0,1,1.22h.11a1.12,1.12,0,0,0,1.11-1c.07-.77.12-1.54.15-2.3H55.82a1.11,1.11,0,0,0,1.06,1.08A1.13,1.13,0,0,0,58,30.15c0-.37,0-.75,0-1.12a29,29,0,1,0-29,29ZM49.48,11.75a26.67,26.67,0,0,1,6.31,16.16H45.06A34.73,34.73,0,0,0,42.54,16,33.43,33.43,0,0,0,49.48,11.75ZM41.63,14A34.58,34.58,0,0,0,32.69,2.49a26.74,26.74,0,0,1,15.25,7.58A31.15,31.15,0,0,1,41.63,14ZM27.91,19v9H15.24a32.39,32.39,0,0,1,2.33-11A32.36,32.36,0,0,0,27.91,19Zm-9.42-4.12A32.35,32.35,0,0,1,27.91,3.3v13.4A30.16,30.16,0,0,1,18.49,14.84ZM30.14,3.3a32.35,32.35,0,0,1,9.42,11.54,30.17,30.17,0,0,1-9.42,1.86ZM16.42,14a31.16,31.16,0,0,1-6.31-3.89A26.75,26.75,0,0,1,25.34,2.5,34.54,34.54,0,0,0,16.42,14ZM15.51,16A34.62,34.62,0,0,0,13,27.92H2.26A26.67,26.67,0,0,1,8.57,11.75,33.52,33.52,0,0,0,15.51,16ZM13,30.15a34.62,34.62,0,0,0,2.43,11.71A33.84,33.84,0,0,0,8.27,46a26.66,26.66,0,0,1-6-15.8ZM9.76,47.63a31.64,31.64,0,0,1,6.56-3.72,34.56,34.56,0,0,0,9,11.66A26.74,26.74,0,0,1,9.77,47.63Zm8.66-4.53a33.09,33.09,0,0,1,9.48-1.75V54.77A32.36,32.36,0,0,1,18.42,43.1Zm9.48-4a35.36,35.36,0,0,0-10.39,1.93,32.44,32.44,0,0,1-2.28-10.91H27.91ZM30.14,19a32.41,32.41,0,0,0,10.34-2.07,32.47,32.47,0,0,1,2.34,11H30.14Z"/><path class="cls-1" d="M64.86,45.72V43.39a11.83,11.83,0,0,0-23.67,0v2.33A3.35,3.35,0,0,0,39,48.84V63.65A3.35,3.35,0,0,0,42.4,67H63.65A3.35,3.35,0,0,0,67,63.65V48.84A3.36,3.36,0,0,0,64.86,45.72ZM53,33.79a9.61,9.61,0,0,1,9.6,9.6v2.1H60.29V42.84a7.27,7.27,0,1,0-14.54,0v2.64H43.43v-2.1A9.61,9.61,0,0,1,53,33.79Zm5,11.69H48V42.84a5,5,0,1,1,10.06,0Zm6.71,18.17a1.12,1.12,0,0,1-1.12,1.12H42.4a1.12,1.12,0,0,1-1.12-1.12V48.84a1.12,1.12,0,0,1,1.12-1.12H63.65a1.12,1.12,0,0,1,1.12,1.12Z"/></g></g></svg>