<svg xmlns="http://www.w3.org/2000/svg" viewBox="0 0 77.65 72.55"><defs><style>.cls-1{fill:#412bff;}</style></defs><title>Asset 4</title><g id="Layer_2" data-name="Layer 2"><g id="Layer_1-2" data-name="Layer 1"><path class="cls-1" d="M58.08,31.09a17.92,17.92,0,0,1-15.55-5.62l-2.8-3a1.3,1.3,0,0,0-1.92,0l-2.66,2.93a18,18,0,0,1-15.61,5.74,1.3,1.3,0,0,0-1.46,1.3V43a24.61,24.61,0,0,0,7.77,18l12,11.22a1.3,1.3,0,0,0,1.76,0L51.77,61a24.7,24.7,0,0,0,7.77-18,1.3,1.3,0,1,0-2.59,0,22.14,22.14,0,0,1-7,16.1L38.81,69.46,27.67,59.09a22.14,22.14,0,0,1-7-16.1V33.81a20.54,20.54,0,0,0,16.45-6.7l1.68-1.88,1.85,2a20.53,20.53,0,0,0,16.29,6.61V37.7a1.3,1.3,0,0,0,2.59,0V32.39a1.31,1.31,0,0,0-1.46-1.3Z"/><path class="cls-1" d="M38.81,35a6.48,6.48,0,0,0-6.48,6.48v1.3H31a1.3,1.3,0,0,0-1.3,1.3V57A1.3,1.3,0,0,0,31,58.3H46.58a1.3,1.3,0,0,0,1.3-1.3V44a1.3,1.3,0,0,0-1.3-1.3h-1.3v-1.3A6.48,6.48,0,0,0,38.81,35Zm-3.89,6.48a3.89,3.89,0,1,1,7.77,0v1.3H34.92ZM45.29,55.71h-13V45.34h13Z"/><path class="cls-1" d="M38.81,47.94a1.3,1.3,0,0,0-1.3,1.3v2.59a1.3,1.3,0,1,0,2.59,0V49.23A1.3,1.3,0,0,0,38.81,47.94Z"/><path class="cls-1" d="M66.53,18.49A24.77,24.77,0,0,0,42.7,0,24.47,24.47,0,0,0,20.22,14.61a16.31,16.31,0,0,0-3.43-.36A16.84,16.84,0,0,0,14,47.69h.22a1.3,1.3,0,1,0,.22-2.59,14.25,14.25,0,1,1,6.26-27.71,1.3,1.3,0,0,0,1.57-.78,21.89,21.89,0,0,1,20.46-14A22.15,22.15,0,0,1,64.2,19.89a1.3,1.3,0,0,0,1.06,1A11.66,11.66,0,0,1,63.43,44a1.3,1.3,0,1,0,0,2.59,14.25,14.25,0,0,0,3.11-28.15Z"/></g></g></svg>