<svg xmlns="http://www.w3.org/2000/svg" viewBox="0 0 30.13 3987"><defs><style>.cls-1{fill:none;stroke:#333;stroke-miterlimit:10;stroke-width:1.31px;}.cls-2{fill:#292eff;}.cls-3{fill:#333;opacity:0.38;}</style></defs><title>Asset 3</title><g id="Layer_2" data-name="Layer 2"><g id="Layer_1-2" data-name="Layer 1"><circle class="cls-1" cx="15.06" cy="909.4" r="14.41"/><circle class="cls-2" cx="15.06" cy="909.4" r="3.93"/><circle class="cls-1" cx="15.06" cy="89.4" r="14.41"/><circle class="cls-2" cx="15.06" cy="89.4" r="3.93"/><polyline class="cls-3" points="15.46 103.59 15.46 894.59 14.33 894.59 14.33 103.59"/><polyline class="cls-3" points="15.46 924.59 15.46 1518.59 14.33 1518.59 14.33 924.59"/><polyline class="cls-3" points="15.46 1548.59 15.46 2302.59 14.33 2302.59 14.33 1548.59"/><polyline class="cls-3" points="15.46 2331.59 15.46 3092.59 14.33 3092.59 14.33 2331.59"/><polyline class="cls-3" points="15.46 3121.59 15.46 3882.59 14.33 3882.59 14.33 3121.59"/><polyline class="cls-3" points="14.33 75 14.33 0 15.46 0 15.46 75"/><polyline class="cls-3" points="15.33 3987 15.33 3912 16.46 3912 16.46 3987"/><circle class="cls-1" cx="15.06" cy="1533.4" r="14.41"/><circle class="cls-2" cx="15.06" cy="1533.4" r="3.93"/><circle class="cls-1" cx="15.06" cy="2317.4" r="14.41"/><circle class="cls-2" cx="15.06" cy="2317.4" r="3.93"/><circle class="cls-1" cx="15.06" cy="3107.4" r="14.41"/><circle class="cls-2" cx="15.06" cy="3107.4" r="3.93"/><circle class="cls-1" cx="15.06" cy="3897.4" r="14.41"/><circle class="cls-2" cx="15.06" cy="3897.4" r="3.93"/></g></g></svg>