<svg xmlns="http://www.w3.org/2000/svg" viewBox="0 0 784.08 629.22"><defs><style>.cls-1{opacity:0.28;}.cls-2,.cls-3{fill:#333;}.cls-3{stroke:gray;stroke-miterlimit:10;stroke-width:0.15px;}</style></defs><title>Asset 7</title><g id="Layer_2" data-name="Layer 2"><g id="Layer_1-2" data-name="Layer 1"><g class="cls-1"><polygon class="cls-2" points="476.96 622.37 538.21 497.14 538.64 497.35 477.38 622.57 476.96 622.37"/><polygon class="cls-2" points="259.14 495 259.15 494.52 538.43 497.01 538.42 497.49 259.14 495"/><polygon class="cls-2" points="259.04 494.95 259.26 494.55 477.29 622.27 477.05 622.68 259.04 494.95"/><polygon class="cls-2" points="259 494.58 397.02 384.98 397.32 385.35 259.29 494.94 259 494.58"/><polygon class="cls-2" points="56.18 431.14 56.32 430.69 259.21 494.53 259.07 494.98 56.18 431.14"/><polygon class="cls-2" points="139.75 333.61 140.13 333.33 259.32 494.62 258.96 494.89 139.75 333.61"/><path class="cls-3" d="M56.25,430.92"/><rect class="cls-2" x="33.85" y="381.95" width="128.46" height="0.48" transform="translate(-255.75 207.57) rotate(-49.34)"/><polygon class="cls-2" points="56.01 430.91 65.76 184.39 66.23 184.41 56.48 430.93 56.01 430.91"/><polygon class="cls-2" points="65.78 184.51 66.2 184.31 140.15 333.36 139.73 333.57 65.78 184.51"/><polygon class="cls-2" points="139.77 333.3 261.51 218.29 261.83 218.64 140.1 333.65 139.77 333.3"/><polygon class="cls-2" points="139.85 333.25 354.4 265.38 354.56 265.81 140 333.7 139.85 333.25"/><polygon class="cls-2" points="139.88 333.7 139.97 333.24 397.21 384.93 397.12 385.39 139.88 333.7"/><polygon class="cls-2" points="258.93 494.66 354.27 265.5 354.71 265.69 259.37 494.85 258.93 494.66"/><polygon class="cls-2" points="258.91 494.75 261.44 218.47 261.92 218.47 259.38 494.77 258.91 494.75"/><polygon class="cls-2" points="261.57 218.68 261.77 218.26 356.8 265.35 356.56 265.77 261.57 218.68"/><polygon class="cls-2" points="538.34 497.02 717.36 427.34 717.54 427.78 538.52 497.46 538.34 497.02"/><polygon class="cls-2" points="500.03 263.41 500.49 263.33 538.66 497.2 538.18 497.28 500.03 263.41"/><polygon class="cls-2" points="397.02 385.35 397.32 384.97 538.57 497.06 538.27 497.43 397.02 385.35"/><polygon class="cls-2" points="396.99 385 500.08 263.22 500.44 263.52 397.35 385.31 396.99 385"/><polygon class="cls-2" points="354.27 265.68 354.7 265.52 397.4 385.07 396.94 385.23 354.27 265.68"/><polygon class="cls-2" points="396.94 385.13 419.19 165.44 419.65 165.49 397.4 385.17 396.94 385.13"/><polygon class="cls-2" points="354.28 265.46 419.22 165.34 419.62 165.6 354.67 265.72 354.28 265.46"/><polygon class="cls-2" points="354.48 265.83 354.47 265.36 500.27 263.12 500.26 263.6 354.48 265.83"/><path class="cls-3" d="M354.47,265.61"/><polygon class="cls-2" points="500.26 263.6 500.28 263.13 621.03 268.04 621.02 268.51 500.26 263.6"/><polygon class="cls-2" points="500.12 263.55 500.42 263.18 717.58 427.37 717.29 427.75 500.12 263.55"/><polygon class="cls-2" points="620.83 268.4 621.23 268.15 717.64 427.43 717.23 427.69 620.83 268.4"/><polygon class="cls-2" points="492.07 178.07 492.34 177.68 621.17 268.08 620.89 268.46 492.07 178.07"/><polygon class="cls-2" points="620.92 268.07 755.12 187.18 755.37 187.58 621.15 268.49 620.92 268.07"/><polygon class="cls-2" points="491.96 177.9 492.44 177.85 500.5 263.34 500.04 263.39 491.96 177.9"/><polygon class="cls-2" points="419.38 165.7 419.46 165.24 492.24 177.64 492.15 178.11 419.38 165.7"/><polygon class="cls-2" points="392.14 71.34 392.58 71.21 419.65 165.4 419.19 165.53 392.14 71.34"/><polygon class="cls-2" points="419.35 165.25 558.4 122.89 558.54 123.33 419.5 165.69 419.35 165.25"/><polygon class="cls-2" points="492.17 177.65 692.37 147.52 692.43 147.99 492.23 178.12 492.17 177.65"/><polygon class="cls-2" points="492.05 177.7 558.32 122.94 558.61 123.29 492.36 178.05 492.05 177.7"/><polygon class="cls-2" points="492.09 177.67 777.22 28.4 777.44 28.82 492.31 178.09 492.09 177.67"/><polygon class="cls-2" points="692.28 147.96 692.53 147.56 755.36 187.18 755.12 187.58 692.28 147.96"/><polygon class="cls-2" points="692.22 147.62 777.13 28.47 777.51 28.74 692.6 147.89 692.22 147.62"/><polygon class="cls-2" points="584.58 109.41 584.73 108.95 692.48 147.55 692.33 147.97 584.58 109.41"/><polygon class="cls-2" points="558.35 122.9 584.54 108.98 584.75 109.39 558.57 123.31 558.35 122.9"/><polygon class="cls-2" points="584.42 109.15 594.33 38.14 594.8 38.2 584.88 109.22 584.42 109.15"/><polygon class="cls-2" points="584.57 108.96 777.23 28.39 777.43 28.82 584.75 109.38 584.57 108.96"/><polygon class="cls-2" points="443.51 27.2 443.56 26.72 594.58 37.94 594.55 38.4 443.51 27.2"/><polygon class="cls-2" points="594.54 37.93 777.32 28.37 777.34 28.84 594.57 38.41 594.54 37.93"/><polygon class="cls-2" points="392.33 71.04 594.52 37.93 594.6 38.4 392.4 71.49 392.33 71.04"/><polygon class="cls-2" points="392.21 71.09 443.39 26.77 443.7 27.13 392.51 71.46 392.21 71.09"/><polygon class="cls-2" points="295.17 7 295.24 6.53 443.58 26.72 443.5 27.18 295.17 7"/><rect class="cls-2" x="93.78" y="36.16" width="350" height="0.47" transform="translate(-1.57 14.55) rotate(-3.09)"/><polygon class="cls-2" points="6.78 11.41 6.77 10.94 295.2 6.53 295.21 7 6.78 11.41"/><polygon class="cls-2" points="208.66 91.83 295.04 6.6 295.36 6.94 209 92.15 208.66 91.83"/><polygon class="cls-2" points="36.45 107.94 295.12 6.55 295.28 6.99 36.61 108.38 36.45 107.94"/><polygon class="cls-2" points="6.69 11.39 6.86 10.96 94.13 45.61 93.96 46.05 6.69 11.39"/><polygon class="cls-2" points="36.36 108.01 93.87 45.68 94.21 45.99 36.71 108.32 36.36 108.01"/><polygon class="cls-2" points="93.96 46.05 94.13 45.61 208.91 91.78 208.73 92.22 93.96 46.05"/><polygon class="cls-2" points="122.92 109.27 208.78 91.77 208.88 92.22 123.02 109.72 122.92 109.27"/><polygon class="cls-2" points="208.73 92.22 208.91 91.77 297.13 126.9 296.96 127.33 208.73 92.22"/><polygon class="cls-2" points="139.7 333.4 208.59 91.93 209.05 92.06 140.16 333.54 139.7 333.4"/><polygon class="cls-2" points="36.36 110.9 36.8 110.72 66.21 184.32 65.77 184.49 36.36 110.9"/><polygon class="cls-2" points="65.8 184.27 122.78 109.35 123.16 109.63 66.18 184.55 65.8 184.27"/><polygon class="cls-2" points="65.94 184.18 297 126.88 297.1 127.34 66.05 184.63 65.94 184.18"/><polygon class="cls-2" points="93.82 45.93 94.24 45.74 123.18 109.39 122.76 109.59 93.82 45.93"/><polygon class="cls-2" points="3.79 11.41 4.1 11.04 123.12 109.31 122.81 109.68 3.79 11.41"/><polygon class="cls-2" points="122.72 109.51 123.21 109.47 140.16 333.46 139.69 333.48 122.72 109.51"/><polygon class="cls-2" points="296.81 127.11 294.97 6.77 295.45 6.75 297.28 127.11 296.81 127.11"/><polygon class="cls-2" points="290.17 127.02 392.25 71.07 392.48 71.48 290.39 127.43 290.17 127.02"/><polygon class="cls-2" points="261.45 218.38 296.83 127.03 297.27 127.19 261.89 218.56 261.45 218.38"/><path class="cls-2" d="M692.51,154.53a6.77,6.77,0,1,1,6.67-6.87A6.76,6.76,0,0,1,692.51,154.53Z"/><path class="cls-2" d="M621.12,275a6.77,6.77,0,1,1,6.66-6.88A6.76,6.76,0,0,1,621.12,275Z"/><path class="cls-2" d="M584.75,115.95a6.77,6.77,0,1,1,6.66-6.87A6.75,6.75,0,0,1,584.75,115.95Z"/><path class="cls-2" d="M558.56,129.87a6.76,6.76,0,1,1,6.67-6.86A6.76,6.76,0,0,1,558.56,129.87Z"/><path class="cls-2" d="M419.53,172.23a6.77,6.77,0,1,1,6.65-6.87A6.78,6.78,0,0,1,419.53,172.23Z"/><path class="cls-2" d="M500.38,270.12a6.76,6.76,0,1,1,6.64-6.85A6.77,6.77,0,0,1,500.38,270.12Z"/><path class="cls-2" d="M354.58,272.36a6.77,6.77,0,1,1,6.66-6.86A6.74,6.74,0,0,1,354.58,272.36Z"/><path class="cls-2" d="M492.3,184.64a6.77,6.77,0,1,1,6.67-6.86A6.76,6.76,0,0,1,492.3,184.64Z"/><path class="cls-2" d="M208.94,98.75a6.76,6.76,0,1,1,6.65-6.86A6.78,6.78,0,0,1,208.94,98.75Z"/><path class="cls-2" d="M66.08,191.17a6.76,6.76,0,1,1,6.67-6.87A6.79,6.79,0,0,1,66.08,191.17Z"/><path class="cls-2" d="M140,340.24a6.76,6.76,0,1,1,6.65-6.87A6.78,6.78,0,0,1,140,340.24Z"/><path class="cls-2" d="M261.77,225.24a6.77,6.77,0,1,1,6.66-6.88A6.79,6.79,0,0,1,261.77,225.24Z"/><path class="cls-2" d="M36.65,114.92a6.76,6.76,0,1,1,6.65-6.86A6.78,6.78,0,0,1,36.65,114.92Z"/><path class="cls-2" d="M392.47,78a6.77,6.77,0,1,1,6.65-6.86A6.75,6.75,0,0,1,392.47,78Z"/><path class="cls-2" d="M259.26,501.51a6.76,6.76,0,1,1,6.65-6.86A6.75,6.75,0,0,1,259.26,501.51Z"/><path class="cls-2" d="M56.33,437.69A6.77,6.77,0,1,1,63,430.82,6.77,6.77,0,0,1,56.33,437.69Z"/><path class="cls-2" d="M538.53,504a6.76,6.76,0,1,1,6.66-6.86A6.75,6.75,0,0,1,538.53,504Z"/><path class="cls-2" d="M477.28,629.22a6.76,6.76,0,1,1,6.64-6.85A6.74,6.74,0,0,1,477.28,629.22Z"/><path class="cls-2" d="M717.54,434.32a6.76,6.76,0,1,1,6.67-6.87A6.78,6.78,0,0,1,717.54,434.32Z"/><path class="cls-2" d="M397.27,391.92a6.77,6.77,0,1,1,6.67-6.86A6.77,6.77,0,0,1,397.27,391.92Z"/><path class="cls-2" d="M755.34,194.14a6.76,6.76,0,1,1,6.67-6.86A6.77,6.77,0,0,1,755.34,194.14Z"/><path class="cls-2" d="M777.43,35.36a6.76,6.76,0,1,1,6.66-6.86A6.75,6.75,0,0,1,777.43,35.36Z"/><path class="cls-2" d="M594.67,44.92a6.75,6.75,0,1,1,6.66-6.85A6.75,6.75,0,0,1,594.67,44.92Z"/><path class="cls-2" d="M443.63,33.72a6.76,6.76,0,1,1,6.67-6.86A6.75,6.75,0,0,1,443.63,33.72Z"/><path class="cls-2" d="M295.31,13.52A6.76,6.76,0,1,1,302,6.66,6.78,6.78,0,0,1,295.31,13.52Z"/><path class="cls-2" d="M297.16,133.86A6.76,6.76,0,1,1,303.8,127,6.75,6.75,0,0,1,297.16,133.86Z"/><path class="cls-2" d="M123.07,116.25a6.76,6.76,0,1,1,6.66-6.86A6.76,6.76,0,0,1,123.07,116.25Z"/><path class="cls-2" d="M94.15,52.59a6.76,6.76,0,1,1,6.64-6.85A6.77,6.77,0,0,1,94.15,52.59Z"/><path class="cls-2" d="M6.87,17.95a6.77,6.77,0,1,1,6.67-6.87A6.79,6.79,0,0,1,6.87,17.95Z"/></g></g></g></svg>