<svg xmlns="http://www.w3.org/2000/svg" xmlns:xlink="http://www.w3.org/1999/xlink" viewBox="0 0 357 340.25"><defs><style>.cls-1{fill:#b0bec5;}.cls-13,.cls-14,.cls-15,.cls-2{opacity:0.5;}.cls-3{fill:url(#linear-gradient);}.cls-4{fill:#fff;}.cls-11,.cls-5{fill:#6c63ff;}.cls-5{opacity:0.04;}.cls-10,.cls-13,.cls-14,.cls-15,.cls-5{isolation:isolate;}.cls-6{opacity:0.7;}.cls-7{fill:url(#linear-gradient-2);}.cls-8{fill:#3ad29f;}.cls-9{fill:#fda57d;}.cls-10{opacity:0.05;}.cls-12{fill:#3d213c;}.cls-13{fill:#4d8af0;}.cls-14{fill:#f55f44;}.cls-15,.cls-16{fill:#47e6b1;}</style><linearGradient id="linear-gradient" x1="374.45" y1="-4539.54" x2="374.45" y2="-4200.52" gradientTransform="matrix(1, 0, 0, -1, -170.3, -4200.5)" gradientUnits="userSpaceOnUse"><stop offset="0" stop-color="gray" stop-opacity="0.25"/><stop offset="0.54" stop-color="gray" stop-opacity="0.12"/><stop offset="1" stop-color="gray" stop-opacity="0.1"/></linearGradient><linearGradient id="linear-gradient-2" x1="163.22" y1="-4284.81" x2="239.17" y2="-4284.81" gradientTransform="matrix(1, 0, 0, -1, 0, -4110)" xlink:href="#linear-gradient"/></defs><title>Asset 15</title><g id="Layer_2" data-name="Layer 2"><g id="Layer_1-2" data-name="Layer 1"><rect class="cls-1" x="68.86" y="248.38" width="33.88" height="3.39"/><rect class="cls-1" x="81.17" y="289.55" width="33.88" height="3.39"/><rect class="cls-1" x="108.27" y="309.45" width="17.36" height="3.81"/><rect class="cls-1" x="117.17" y="330.21" width="17.36" height="2.54"/><g class="cls-2"><path class="cls-3" d="M204.15,0,72.59,81s0,167,131.56,258.05C335.7,248,335.7,81,335.7,81Z"/></g><path class="cls-4" d="M204.15,5.09,76.52,83.63s0,162,127.63,250.34C331.78,245.6,331.78,83.63,331.78,83.63Z"/><path class="cls-5" d="M204.91,5.09l-2.18,1.34v326l2.18,1.53C332.53,245.62,332.53,83.63,332.53,83.63Z"/><g class="cls-6"><polygon class="cls-7" points="173.25 164.24 197.31 186.29 227.14 143.27 239.17 153.3 197.31 206.34 163.22 168.25 173.25 164.24"/></g><polygon class="cls-8" points="178.93 165.57 198.45 183.46 226.1 142.79 235.85 150.93 198.45 199.72 170.8 168.82 178.93 165.57"/><path class="cls-9" d="M107.89,242.26S86,244.81,92.61,258.06a150.41,150.41,0,0,1,10.07,26.88l11.59-2.42s-4.59-21.65-8.66-24.2l11-2Z"/><path class="cls-10" d="M105.6,258.31l11-2-8.66-14-.7.1,8.6,13.91-11,2c4.08,2.55,8.66,24.2,8.66,24.2l-10.88,2.27,0,.15,11.59-2.42S109.68,260.86,105.6,258.31Z"/><path class="cls-11" d="M109.65,280.06a29.4,29.4,0,0,1-17,4.47S87.15,287,94.88,289s20.2.58,21.18-.95-.41-6.69-2.69-8.81S109.65,280.06,109.65,280.06Z"/><path class="cls-9" d="M127.51,273.34s-.51,9.94,3.06,17.07l2.55,34.4h8.15s0-16.82,3.82-25.73-2-18.85-2-18.85L142.54,270Z"/><circle class="cls-9" cx="132.61" cy="166.84" r="10.44"/><rect class="cls-9" x="125.47" y="172.2" width="12.74" height="11.47"/><path class="cls-11" d="M138.21,322.26a29.4,29.4,0,0,1-17.58.77s-5.86,1.27,1.27,4.84,19.62,4.84,20.89,3.56,1-6.63-.76-9.17S138.21,322.26,138.21,322.26Z"/><path class="cls-9" d="M105.73,204.43l-15,38.72s-11.47,3.06-5.6,8.66c0,0-1-5.35,7.13-3.82,0,0,2.3,3.82,2.3,5.1s2.62-4.26,1.56-7a62.16,62.16,0,0,1,12.69-21.58s6.37-11.21,6.11-18.85Z"/><path class="cls-9" d="M156.18,190.67s8.15,3.82,12.23,2.55c2.89-.9,6-6.66,7.62-9.94a5,5,0,0,1,3.86-2.77c3-.36,7.27-.33,6.1,3-1.78,5.1-7.64,6.63-7.64,6.63l-8.41,11.71H155.16Z"/><circle class="cls-12" cx="130.7" cy="165.95" r="10.7"/><ellipse class="cls-12" cx="136.3" cy="156.4" rx="7.9" ry="4.46"/><polygon class="cls-10" points="127.56 277.2 127.56 278.49 142.87 276.53 142.87 275.07 127.56 277.2"/><polygon class="cls-10" points="106.15 242.54 105.13 242.75 110.07 257.48 110.69 257.37 106.15 242.54"/><polygon class="cls-10" points="160.38 192.3 161.39 192.61 161.72 201.88 160.38 201.88 160.38 192.3"/><polygon class="cls-10" points="105.26 205.63 104.93 206.5 113.98 212.16 114.23 211.17 105.26 205.63"/><path class="cls-10" d="M115.73,236.68l-1.5.6s25.12,12.18,33.4,1.51l-.27-.95S139.75,248,115.73,236.68Z"/><path class="cls-13" d="M78.22,22.7a1.75,1.75,0,0,1-.95-2.1,1,1,0,0,0,0-.19h0a.87.87,0,0,0-1.57-.58h0a.75.75,0,0,0-.09.17,1.74,1.74,0,0,1-2.1,1l-.19,0h0a.87.87,0,0,0-.62,1.55h0l.17.09a1.74,1.74,0,0,1,1,2.1.88.88,0,0,0,0,.19h0a.87.87,0,0,0,1.57.58h0a.75.75,0,0,0,.09-.17,1.74,1.74,0,0,1,2.1-1l.19,0h0a.87.87,0,0,0,.58-1.57h0Z"/><path class="cls-13" d="M9.13,176.49a1.75,1.75,0,0,1-1-2.1,1,1,0,0,0,0-.19h0a.87.87,0,0,0-1.57-.58h0a.75.75,0,0,0-.09.17,1.74,1.74,0,0,1-2.1,1l-.19,0h0a.87.87,0,0,0-.6,1.55h0l.17.09a1.74,1.74,0,0,1,.95,2.1.88.88,0,0,0,0,.19h0a.87.87,0,0,0,1.57.58h0a.75.75,0,0,0,.09-.17,1.74,1.74,0,0,1,2.1-1l.19,0h0a.87.87,0,0,0,.58-1.57h0Z"/><circle class="cls-14" cx="354.16" cy="120.2" r="2.84"/><circle class="cls-14" cx="57.45" cy="323.21" r="2.84"/><path class="cls-13" d="M333.29,36.42a1.75,1.75,0,0,1-1-2.1,1,1,0,0,0,0-.19h0a.87.87,0,0,0-1.57-.58h0a.75.75,0,0,0-.09.17,1.74,1.74,0,0,1-2.1,1l-.19,0h0a.87.87,0,0,0-.6,1.55h0l.17.09a1.74,1.74,0,0,1,1,2.1.88.88,0,0,0,0,.19h0a.87.87,0,0,0,1.57.58h0a.75.75,0,0,0,.09-.17,1.74,1.74,0,0,1,2.1-1l.19,0h0a.87.87,0,0,0,.58-1.57h0Z"/><path class="cls-13" d="M5.82,86.58a1.75,1.75,0,0,1-1-2.1,1,1,0,0,0,0-.19h0a.87.87,0,0,0-1.57-.58h0a.75.75,0,0,0-.09.17,1.74,1.74,0,0,1-2.1,1l-.19,0h0a.87.87,0,0,0-.6,1.55h0l.17.09a1.74,1.74,0,0,1,.95,2.1.88.88,0,0,0,0,.19h0A.87.87,0,0,0,3,89.33H3a.75.75,0,0,0,.09-.17,1.74,1.74,0,0,1,2.1-1l.19,0h0a.87.87,0,0,0,.58-1.57h0Z"/><circle class="cls-15" cx="37.57" cy="134.4" r="2.84"/><g class="cls-2"><rect class="cls-16" x="276.08" width="1.42" height="8.04"/><rect class="cls-16" x="272.77" y="3.31" width="8.04" height="1.42"/></g><g class="cls-2"><rect class="cls-16" x="281.28" y="315.17" width="1.42" height="8.04"/><rect class="cls-16" x="277.97" y="318.48" width="8.04" height="1.42"/></g><g class="cls-2"><rect class="cls-16" x="12.49" y="332.2" width="1.42" height="8.04"/><rect class="cls-16" x="9.18" y="335.52" width="8.04" height="1.42"/></g><g class="cls-2"><rect class="cls-16" x="335.7" y="187.4" width="1.42" height="8.04"/><rect class="cls-16" x="332.39" y="190.71" width="8.04" height="1.42"/></g><path class="cls-11" d="M103.43,238.81l7.1,20.24q5.1-1.66,10.33-2.94a17.23,17.23,0,0,1,5.35-.6c-1.42.26-1.2,1.19-1.59,2.6a13.34,13.34,0,0,0-.19,4.36,74,74,0,0,1-.59,14.72,113.54,113.54,0,0,1,22.86-2.55,73,73,0,0,1-2.12-12.6,14.73,14.73,0,0,1,0-3.36,21.06,21.06,0,0,1,1.42-4.34,34.62,34.62,0,0,0,2.19-10.23,9.27,9.27,0,0,0-.43-4,7.07,7.07,0,0,0-3.83-3.65,18.42,18.42,0,0,0-5.26-1.22c-6.81-.84-13.48-.68-20.32-.61-2.62,0-3.9.84-6.27,2C111.32,237,103.77,239.79,103.43,238.81Z"/><path class="cls-11" d="M116.64,184.57c-4.13,2.24-7.41,5.74-10.61,9.18l-8,8.56a118.78,118.78,0,0,1,11.36,6.09,8,8,0,0,1,3.41,3.2,7.75,7.75,0,0,1,.12,4.63,73.78,73.78,0,0,1-5.73,17.65c6.43,1.42,13,2.84,18.69,6.06a11.6,11.6,0,0,0,4.56,1.89,9.91,9.91,0,0,0,2.95-.35l14.54-3.27a2.7,2.7,0,0,0,1.27-.53,2.75,2.75,0,0,0,.59-.95c2.56-5.6,5.18-11.48,4.91-17.63-.13-2.9-.9-5.84-.24-8.67S158,205,160.75,206l1.19-13.61c.14-1.53.17-3.31-1-4.3-.83-.67-2-.71-3-1-1.61-.53-2.84-1.82-4.26-2.74-3.88-2.54-8.88-2.24-13.5-1.84-3.93.34-7.82.95-11.73.38C124.19,182.28,120.5,182.48,116.64,184.57Z"/></g></g></svg>