<svg xmlns="http://www.w3.org/2000/svg" xmlns:xlink="http://www.w3.org/1999/xlink" viewBox="0 0 180.67 58.76"><defs><style>.cls-1,.cls-2{fill:none;stroke-miterlimit:10;stroke-width:1.92px;}.cls-1{stroke:url(#linear-gradient);}.cls-2{stroke:url(#linear-gradient-2);}.cls-3,.cls-4{fill:#fff;}.cls-4{font-size:41.52px;font-family:GoogleSans-Medium, Google Sans Medium;}.cls-5{letter-spacing:0em;}</style><linearGradient id="linear-gradient" x1="9.1" y1="3.69" x2="42.43" y2="42.9" gradientUnits="userSpaceOnUse"><stop offset="0" stop-color="#01f6ba"/><stop offset="0.64" stop-color="#02f5d2"/><stop offset="1" stop-color="#03f5e2"/></linearGradient><linearGradient id="linear-gradient-2" x1="7.7" y1="1.37" x2="44.03" y2="44.1" xlink:href="#linear-gradient"/></defs><title>Asset 18</title><g id="Layer_2" data-name="Layer 2"><g id="Layer_1-2" data-name="Layer 1"><path class="cls-1" d="M44.2,9.64c-2.5-.49-5-.88-7.51-1.48A52,52,0,0,1,25.38,3.59a1.54,1.54,0,0,0-.76-.2,1.58,1.58,0,0,0-.68.2A50.6,50.6,0,0,1,12.67,8.16C9.84,8.84,7,9.29,4.09,9.83,2.75,10.08,3,9.91,3,11.11c.11,3.44.27,6.87.44,10.31a22.13,22.13,0,0,0,.32,3.52c.55,2.61,1.13,5.21,1.89,7.77a39.32,39.32,0,0,0,7.9,14.11,45.61,45.61,0,0,0,5.28,5,27.21,27.21,0,0,0,5,3.36,1.4,1.4,0,0,0,.72.19,1.49,1.49,0,0,0,.59-.16,28.68,28.68,0,0,0,5.63-3.73,39.28,39.28,0,0,0,10.44-13,43.94,43.94,0,0,0,4.61-18.33c.07-1.79.18-3.58.26-5.38.07-1.54.11-3.09.16-4.71Z"/><path class="cls-2" d="M46,7.79c-2.74-.53-5.5-1-8.21-1.61a56.83,56.83,0,0,1-12.38-5A1.68,1.68,0,0,0,24.61,1a1.73,1.73,0,0,0-.74.22,55.33,55.33,0,0,1-12.32,5C8.46,6.92,5.3,7.41,2.17,8,.7,8.28,1,8.09,1,9.4c.12,3.76.3,7.52.48,11.27a24.2,24.2,0,0,0,.35,3.85c.61,2.85,1.24,5.7,2.07,8.49a43,43,0,0,0,8.63,15.43,49.88,49.88,0,0,0,5.77,5.47,29.76,29.76,0,0,0,5.52,3.67,1.53,1.53,0,0,0,.79.21,1.63,1.63,0,0,0,.64-.17,31.36,31.36,0,0,0,6.15-4.08A43,43,0,0,0,42.83,39.32a48,48,0,0,0,5-20c.08-2,.2-3.92.28-5.88.07-1.69.12-3.38.18-5.15Z"/><path class="cls-3" d="M22.5,38.61a1.76,1.76,0,0,1-1.4-.7l-4.51-6a1.76,1.76,0,0,1,2.8-2.12l3,3.91,7.45-12a1.76,1.76,0,1,1,3,1.86L24,37.78a1.76,1.76,0,0,1-1.41.83Z"/><text class="cls-4" transform="translate(88.57 41.94)">El<tspan class="cls-5" x="33.76" y="0">ig</tspan><tspan x="69.38" y="0">a</tspan></text></g></g></svg>